#!OML:ASF X:\für Bonn\!DataBase\2005_08_10_Bjorn_Final\c3d\bjorn.ASF
:FULLY-SPECIFIED
:DEGREES
226
root 16.241 17.6529 0.418246 1086.5 -66.7141 -327.055
lowerback 69.9755 -1.11446 11.03
upperback 18.6395 2.81687 -0.700428
thorax 0.662765 1.71207 -6.27703
lowerneck 5.94339 -7.14089 12.8322
upperneck -20.1743 -8.69114 -1.2795
head -7.87799 -5.20967 -1.70379
rclavicle -7.31528e-014 9.54166e-015
rhumerus 74.6556 -1.08862 -17.7401
rradius 9.0734
rwrist 21.7775
rhand -36.6093 32.4628
rfingers 7.12502
rthumb -9.69773 2.70607
lclavicle -7.31528e-014 9.54166e-015
lhumerus -7.26311 -25.8603 89.432
lradius 50.783
lwrist 1.71733
lhand -31.1874 -16.379
lfingers 7.12502
lthumb -4.46411 13.5539
rfemur -75.6331 -17.1326 10.6037
rtibia 63.8892
rfoot -19.2449 8.93662
rtoes -8.63957
lfemur -71.9096 -5.94435 -25.9692
ltibia 57.4616
lfoot -15.08 -5.42898
ltoes -6.64304
227
root 16.2524 17.6651 0.43504 1086.57 -66.8842 -327.189
lowerback 69.6043 -0.95871 10.9188
upperback 18.7042 2.86072 -0.651022
thorax 0.700597 1.71236 -6.20429
lowerneck 6.06125 -7.14187 12.8158
upperneck -20.2934 -8.67103 -1.24146
head -7.93517 -5.20568 -1.68433
rclavicle -6.04305e-014 8.90555e-014
rhumerus 73.9796 -0.605946 -17.1332
rradius 9.97282
rwrist 20.2942
rhand -35.9133 30.9073
rfingers 7.12502
rthumb -9.02613 1.12043
lclavicle -6.04305e-014 8.90555e-014
lhumerus -7.3552 -25.8478 89.5201
lradius 50.7065
lwrist 1.67899
lhand -31.0826 -16.39
lfingers 7.12502
lthumb -4.36294 13.545
rfemur -75.5031 -16.9904 10.5896
rtibia 63.6925
rfoot -19.1244 8.94107
rtoes -8.55968
lfemur -71.8196 -5.96171 -25.8542
ltibia 57.3762
lfoot -15.0862 -5.22037
ltoes -6.77976
228
root 16.2649 17.6774 0.451704 1086.76 -67.0513 -327.457
lowerback 69.1503 -0.833155 10.9118
upperback 18.7628 2.92824 -0.644406
thorax 0.741732 1.73712 -6.23219
lowerneck 6.36258 -7.2055 12.9328
upperneck -20.4945 -8.69305 -1.21978
head -8.06465 -5.22995 -1.67734
rclavicle -4.45278e-014 5.08889e-014
rhumerus 73.118 -0.0513626 -16.6048
rradius 10.937
rwrist 18.7263
rhand -35.242 29.3463
rfingers 7.12502
rthumb -8.37832 -0.467507
lclavicle -4.45278e-014 5.08889e-014
lhumerus -7.50586 -25.9486 89.5694
lradius 50.6506
lwrist 1.60046
lhand -31.0174 -16.3566
lfingers 7.12502
lthumb -4.29997 13.5797
rfemur -75.3815 -16.8431 10.6468
rtibia 63.4792
rfoot -19.0291 8.90892
rtoes -8.75031
lfemur -71.7519 -5.96159 -25.6936
ltibia 57.287
lfoot -15.0664 -5.00036
ltoes -7.07246
229
root 16.2777 17.6909 0.469244 1086.94 -67.2144 -327.699
lowerback 68.6651 -0.695224 10.8675
upperback 18.8062 2.98985 -0.629219
thorax 0.760178 1.75355 -6.23451
lowerneck 6.71764 -7.27056 13.0399
upperneck -20.6793 -8.71101 -1.21057
head -8.19838 -5.24857 -1.67156
rclavicle -5.725e-014 3.81667e-014
rhumerus 72.2652 0.91484 -15.1252
rradius 11.9351
rwrist 16.0765
rhand -34.6437 27.6911
rfingers 7.12502
rthumb -7.80093 -2.14501
lclavicle -5.725e-014 3.81667e-014
lhumerus -7.71775 -25.9975 89.6473
lradius 50.6162
lwrist 1.5339
lhand -30.8439 -16.3227
lfingers 7.12502
lthumb -4.13236 13.617
rfemur -75.249 -16.6892 10.6734
rtibia 63.2462
rfoot -18.9107 8.88127
rtoes -8.68774
lfemur -71.6799 -5.98166 -25.5243
ltibia 57.1837
lfoot -15.0463 -4.79598
ltoes -7.07304
230
root 16.2919 17.7047 0.487557 1087.21 -67.3739 -328.041
lowerback 68.0871 -0.562046 10.851
upperback 18.9106 3.04365 -0.622107
thorax 0.848205 1.77506 -6.25565
lowerneck 6.95656 -7.3078 13.1815
upperneck -20.8421 -8.70279 -1.20294
head -8.30429 -5.25846 -1.67927
rclavicle -9.22361e-014 1.08139e-013
rhumerus 71.4138 1.84268 -13.8837
rradius 13.0073
rwrist 13.4561
rhand -34.0604 26.0196
rfingers 7.12502
rthumb -7.23789 -3.83665
lclavicle -9.22361e-014 1.08139e-013
lhumerus -7.85651 -26.072 89.6622
lradius 50.579
lwrist 1.50916
lhand -30.7467 -16.2559
lfingers 7.12502
lthumb -4.03852 13.6856
rfemur -75.1203 -16.5434 10.7554
rtibia 63.0014
rfoot -18.7728 8.85129
rtoes -8.73886
lfemur -71.6109 -6.00732 -25.3207
ltibia 57.0734
lfoot -15.0317 -4.55207
ltoes -7.33154
231
root 16.3055 17.7207 0.505531 1087.51 -67.5504 -328.403
lowerback 67.4434 -0.376745 10.7476
upperback 19.0431 3.09396 -0.580746
thorax 0.957107 1.78481 -6.20348
lowerneck 7.14139 -7.31544 13.255
upperneck -20.9745 -8.68126 -1.23131
head -8.38649 -5.25385 -1.69296
rclavicle -9.54166e-015 7.4743e-014
rhumerus 70.6381 2.7979 -12.7583
rradius 14.1326
rwrist 10.801
rhand -33.5068 24.638
rfingers 7.12502
rthumb -6.70351 -5.23584
lclavicle -9.54166e-015 7.4743e-014
lhumerus -7.95152 -25.9991 89.7036
lradius 50.5228
lwrist 1.48621
lhand -30.5937 -16.1694
lfingers 7.12502
lthumb -3.89075 13.7749
rfemur -74.9844 -16.3618 10.8261
rtibia 62.732
rfoot -18.6463 8.81557
rtoes -8.77158
lfemur -71.5461 -6.00649 -25.1078
ltibia 56.9496
lfoot -14.9776 -4.37048
ltoes -7.28421
232
root 16.3203 17.7368 0.523166 1087.87 -67.7082 -328.799
lowerback 66.7346 -0.190406 10.6225
upperback 19.1771 3.13223 -0.541484
thorax 1.06474 1.78789 -6.14194
lowerneck 7.35118 -7.31978 13.3474
upperneck -21.124 -8.64739 -1.25752
head -8.47934 -5.24529 -1.70907
rclavicle -2.8625e-014 3.97569e-014
rhumerus 69.8877 3.79545 -11.7898
rradius 15.2511
rwrist 8.1059
rhand -33.0019 23.4483
rfingers 7.12502
rthumb -6.21607 -6.44052
lclavicle -2.8625e-014 3.97569e-014
lhumerus -8.07088 -25.8557 89.73
lradius 50.4527
lwrist 1.43304
lhand -30.4067 -16.1285
lfingers 7.12502
lthumb -3.7102 13.8189
rfemur -74.8693 -16.1962 10.9243
rtibia 62.4536
rfoot -18.5255 8.76157
rtoes -8.85883
lfemur -71.5048 -6.01804 -24.8895
ltibia 56.8193
lfoot -14.9407 -4.13739
ltoes -7.55579
233
root 16.3368 17.7538 0.54263 1088.3 -67.8643 -329.27
lowerback 65.9663 -0.0221211 10.49
upperback 19.3201 3.14394 -0.509519
thorax 1.18148 1.77924 -6.07672
lowerneck 7.5055 -7.29214 13.3668
upperneck -21.1835 -8.58257 -1.26215
head -8.52388 -5.21506 -1.71443
rclavicle 1.59028e-014 2.70347e-014
rhumerus 69.1833 4.83672 -10.8903
rradius 16.4212
rwrist 5.31942
rhand -32.4944 22.3461
rfingers 7.12502
rthumb -5.72605 -7.55651
lclavicle 1.59028e-014 2.70347e-014
lhumerus -8.21154 -25.6703 89.7393
lradius 50.4314
lwrist 1.43287
lhand -30.1893 -16.0161
lfingers 7.12502
lthumb -3.50025 13.9349
rfemur -74.7526 -16.029 11.0384
rtibia 62.1549
rfoot -18.3748 8.71645
rtoes -8.87482
lfemur -71.471 -6.04803 -24.6233
ltibia 56.6765
lfoot -14.8868 -3.90705
ltoes -7.68153
